<svg xmlns="http://www.w3.org/2000/svg" width="600" height="800"><rect width="600" height="800" x="0" y="0" fill="#FFFFFF" id="backgorund"/><g transform="translate(10,10)" id="viz"><g id="links"><path d="M0,390C70,390,70,195.00000000000003,140,195.00000000000003" fill="none" stroke="#ccc"/><path d="M0,390C70,390,70,585,140,585" fill="none" stroke="#ccc"/><path d="M140,195.00000000000003C210,195.00000000000003,210,38.99999999999997,280,38.99999999999997" fill="none" stroke="#ccc"/><path d="M140,195.00000000000003C210,195.00000000000003,210,117.00000000000003,280,117.00000000000003" fill="none" stroke="#ccc"/><path d="M140,195.00000000000003C210,195.00000000000003,210,195,280,195" fill="none" stroke="#ccc"/><path d="M140,195.00000000000003C210,195.00000000000003,210,272.99999999999994,280,272.99999999999994" fill="none" stroke="#ccc"/><path d="M140,195.00000000000003C210,195.00000000000003,210,351,280,351" fill="none" stroke="#ccc"/><path d="M140,585C210,585,210,428.99999999999994,280,428.99999999999994" fill="none" stroke="#ccc"/><path d="M140,585C210,585,210,507,280,507" fill="none" stroke="#ccc"/><path d="M140,585C210,585,210,585,280,585" fill="none" stroke="#ccc"/><path d="M140,585C210,585,210,663,280,663" fill="none" stroke="#ccc"/><path d="M140,585C210,585,210,741.0000000000001,280,741.0000000000001" fill="none" stroke="#ccc"/><path d="M280,38.99999999999997C350,38.99999999999997,350,4.8750000000000036,420,4.8750000000000036" fill="none" stroke="#ccc"/><path d="M280,38.99999999999997C350,38.99999999999997,350,14.62500000000001,420,14.62500000000001" fill="none" stroke="#ccc"/><path d="M280,38.99999999999997C350,38.99999999999997,350,24.375000000000018,420,24.375000000000018" fill="none" stroke="#ccc"/><path d="M280,38.99999999999997C350,38.99999999999997,350,34.124999999999964,420,34.124999999999964" fill="none" stroke="#ccc"/><path d="M280,38.99999999999997C350,38.99999999999997,350,43.87499999999997,420,43.87499999999997" fill="none" stroke="#ccc"/><path d="M280,38.99999999999997C350,38.99999999999997,350,53.62499999999998,420,53.62499999999998" fill="none" stroke="#ccc"/><path d="M280,38.99999999999997C350,38.99999999999997,350,63.374999999999986,420,63.374999999999986" fill="none" stroke="#ccc"/><path d="M280,38.99999999999997C350,38.99999999999997,350,73.125,420,73.125" fill="none" stroke="#ccc"/><path d="M280,117.00000000000003C350,117.00000000000003,350,82.875,420,82.875" fill="none" stroke="#ccc"/><path d="M280,117.00000000000003C350,117.00000000000003,350,92.62500000000001,420,92.62500000000001" fill="none" stroke="#ccc"/><path d="M280,117.00000000000003C350,117.00000000000003,350,102.37500000000001,420,102.37500000000001" fill="none" stroke="#ccc"/><path d="M280,117.00000000000003C350,117.00000000000003,350,112.12500000000003,420,112.12500000000003" fill="none" stroke="#ccc"/><path d="M280,117.00000000000003C350,117.00000000000003,350,121.87499999999997,420,121.87499999999997" fill="none" stroke="#ccc"/><path d="M280,117.00000000000003C350,117.00000000000003,350,131.62499999999997,420,131.62499999999997" fill="none" stroke="#ccc"/><path d="M280,117.00000000000003C350,117.00000000000003,350,141.37499999999997,420,141.37499999999997" fill="none" stroke="#ccc"/><path d="M280,117.00000000000003C350,117.00000000000003,350,151.125,420,151.125" fill="none" stroke="#ccc"/><path d="M280,195C350,195,350,160.875,420,160.875" fill="none" stroke="#ccc"/><path d="M280,195C350,195,350,170.625,420,170.625" fill="none" stroke="#ccc"/><path d="M280,195C350,195,350,180.37499999999997,420,180.37499999999997" fill="none" stroke="#ccc"/><path d="M280,195C350,195,350,190.125,420,190.125" fill="none" stroke="#ccc"/><path d="M280,195C350,195,350,199.875,420,199.875" fill="none" stroke="#ccc"/><path d="M280,195C350,195,350,209.62499999999997,420,209.62499999999997" fill="none" stroke="#ccc"/><path d="M280,195C350,195,350,219.37499999999997,420,219.37499999999997" fill="none" stroke="#ccc"/><path d="M280,195C350,195,350,229.125,420,229.125" fill="none" stroke="#ccc"/><path d="M280,272.99999999999994C350,272.99999999999994,350,238.875,420,238.875" fill="none" stroke="#ccc"/><path d="M280,272.99999999999994C350,272.99999999999994,350,248.625,420,248.625" fill="none" stroke="#ccc"/><path d="M280,272.99999999999994C350,272.99999999999994,350,258.375,420,258.375" fill="none" stroke="#ccc"/><path d="M280,272.99999999999994C350,272.99999999999994,350,268.12499999999994,420,268.12499999999994" fill="none" stroke="#ccc"/><path d="M280,272.99999999999994C350,272.99999999999994,350,277.87499999999994,420,277.87499999999994" fill="none" stroke="#ccc"/><path d="M280,272.99999999999994C350,272.99999999999994,350,287.625,420,287.625" fill="none" stroke="#ccc"/><path d="M280,272.99999999999994C350,272.99999999999994,350,297.375,420,297.375" fill="none" stroke="#ccc"/><path d="M280,272.99999999999994C350,272.99999999999994,350,307.125,420,307.125" fill="none" stroke="#ccc"/><path d="M280,351C350,351,350,316.875,420,316.875" fill="none" stroke="#ccc"/><path d="M280,351C350,351,350,326.625,420,326.625" fill="none" stroke="#ccc"/><path d="M280,351C350,351,350,336.375,420,336.375" fill="none" stroke="#ccc"/><path d="M280,351C350,351,350,346.125,420,346.125" fill="none" stroke="#ccc"/><path d="M280,351C350,351,350,355.87499999999994,420,355.87499999999994" fill="none" stroke="#ccc"/><path d="M280,351C350,351,350,365.62499999999994,420,365.62499999999994" fill="none" stroke="#ccc"/><path d="M280,351C350,351,350,375.375,420,375.375" fill="none" stroke="#ccc"/><path d="M280,351C350,351,350,385.125,420,385.125" fill="none" stroke="#ccc"/><path d="M280,428.99999999999994C350,428.99999999999994,350,394.875,420,394.875" fill="none" stroke="#ccc"/><path d="M280,428.99999999999994C350,428.99999999999994,350,404.625,420,404.625" fill="none" stroke="#ccc"/><path d="M280,428.99999999999994C350,428.99999999999994,350,414.375,420,414.375" fill="none" stroke="#ccc"/><path d="M280,428.99999999999994C350,428.99999999999994,350,424.12499999999994,420,424.12499999999994" fill="none" stroke="#ccc"/><path d="M280,428.99999999999994C350,428.99999999999994,350,433.87499999999994,420,433.87499999999994" fill="none" stroke="#ccc"/><path d="M280,428.99999999999994C350,428.99999999999994,350,443.62499999999994,420,443.62499999999994" fill="none" stroke="#ccc"/><path d="M280,428.99999999999994C350,428.99999999999994,350,453.375,420,453.375" fill="none" stroke="#ccc"/><path d="M280,428.99999999999994C350,428.99999999999994,350,463.125,420,463.125" fill="none" stroke="#ccc"/><path d="M280,507C350,507,350,472.875,420,472.875" fill="none" stroke="#ccc"/><path d="M280,507C350,507,350,482.625,420,482.625" fill="none" stroke="#ccc"/><path d="M280,507C350,507,350,492.375,420,492.375" fill="none" stroke="#ccc"/><path d="M280,507C350,507,350,502.125,420,502.125" fill="none" stroke="#ccc"/><path d="M280,507C350,507,350,511.875,420,511.875" fill="none" stroke="#ccc"/><path d="M280,507C350,507,350,521.625,420,521.625" fill="none" stroke="#ccc"/><path d="M280,507C350,507,350,531.375,420,531.375" fill="none" stroke="#ccc"/><path d="M280,507C350,507,350,541.125,420,541.125" fill="none" stroke="#ccc"/><path d="M280,585C350,585,350,550.875,420,550.875" fill="none" stroke="#ccc"/><path d="M280,585C350,585,350,560.625,420,560.625" fill="none" stroke="#ccc"/><path d="M280,585C350,585,350,570.3749999999999,420,570.3749999999999" fill="none" stroke="#ccc"/><path d="M280,585C350,585,350,580.125,420,580.125" fill="none" stroke="#ccc"/><path d="M280,585C350,585,350,589.875,420,589.875" fill="none" stroke="#ccc"/><path d="M280,585C350,585,350,599.625,420,599.625" fill="none" stroke="#ccc"/><path d="M280,585C350,585,350,609.375,420,609.375" fill="none" stroke="#ccc"/><path d="M280,585C350,585,350,619.125,420,619.125" fill="none" stroke="#ccc"/><path d="M280,663C350,663,350,628.875,420,628.875" fill="none" stroke="#ccc"/><path d="M280,663C350,663,350,638.625,420,638.625" fill="none" stroke="#ccc"/><path d="M280,663C350,663,350,648.375,420,648.375" fill="none" stroke="#ccc"/><path d="M280,663C350,663,350,658.1249999999999,420,658.1249999999999" fill="none" stroke="#ccc"/><path d="M280,663C350,663,350,667.8749999999999,420,667.8749999999999" fill="none" stroke="#ccc"/><path d="M280,663C350,663,350,677.6249999999999,420,677.6249999999999" fill="none" stroke="#ccc"/><path d="M280,663C350,663,350,687.3749999999999,420,687.3749999999999" fill="none" stroke="#ccc"/><path d="M280,663C350,663,350,697.1249999999999,420,697.1249999999999" fill="none" stroke="#ccc"/><path d="M280,741.0000000000001C350,741.0000000000001,350,706.8749999999999,420,706.8749999999999" fill="none" stroke="#ccc"/><path d="M280,741.0000000000001C350,741.0000000000001,350,716.6249999999999,420,716.6249999999999" fill="none" stroke="#ccc"/><path d="M280,741.0000000000001C350,741.0000000000001,350,726.3749999999999,420,726.3749999999999" fill="none" stroke="#ccc"/><path d="M280,741.0000000000001C350,741.0000000000001,350,736.125,420,736.125" fill="none" stroke="#ccc"/><path d="M280,741.0000000000001C350,741.0000000000001,350,745.875,420,745.875" fill="none" stroke="#ccc"/><path d="M280,741.0000000000001C350,741.0000000000001,350,755.625,420,755.625" fill="none" stroke="#ccc"/><path d="M280,741.0000000000001C350,741.0000000000001,350,765.375,420,765.375" fill="none" stroke="#ccc"/><path d="M280,741.0000000000001C350,741.0000000000001,350,775.125,420,775.125" fill="none" stroke="#ccc"/></g><g id="nodes"><g transform="translate(0,390)"><circle fill="#ccc" r="5"/><text text-anchor="end" dominant-baseline="text-before-edge" transform="translate(0,0)"><tspan x="-8" y="0" dy="0" style="font-family: Arial, sans-serif; font-size: 10px; fill: black; font-weight: normal;"/></text></g><g id="Males" transform="translate(140,195.00000000000003)"><circle fill="#ccc" r="5"/><text text-anchor="end" dominant-baseline="text-before-edge" transform="translate(0,-6)"><tspan x="-8" y="0" dy="0" style="font-family: Arial, sans-serif; font-size: 10px; fill: black; font-weight: normal;">Males</tspan></text></g><g id="Females" transform="translate(140,585)"><circle fill="#ccc" r="5"/><text text-anchor="end" dominant-baseline="text-before-edge" transform="translate(0,-6)"><tspan x="-8" y="0" dy="0" style="font-family: Arial, sans-serif; font-size: 10px; fill: black; font-weight: normal;">Females</tspan></text></g><g id="Adjusted for age" transform="translate(280,38.99999999999997)"><circle fill="#9467bd" r="5"/><text text-anchor="end" dominant-baseline="text-before-edge" transform="translate(0,-6)"><tspan x="-8" y="0" dy="0" style="font-family: Arial, sans-serif; font-size: 10px; fill: black; font-weight: normal;">Adjusted for age</tspan></text></g><g id="+ Geography" transform="translate(280,117.00000000000003)"><circle fill="#1f77b4" r="5"/><text text-anchor="end" dominant-baseline="text-before-edge" transform="translate(0,-6)"><tspan x="-8" y="0" dy="0" style="font-family: Arial, sans-serif; font-size: 10px; fill: black; font-weight: normal;">+ Geography</tspan></text></g><g id="+ Socio-economics" transform="translate(280,195)"><circle fill="#d62728" r="5"/><text text-anchor="end" dominant-baseline="text-before-edge" transform="translate(0,-6)"><tspan x="-8" y="0" dy="0" style="font-family: Arial, sans-serif; font-size: 10px; fill: black; font-weight: normal;">+ Socio-economics</tspan></text></g><g id="+ Self-reported health/disability" transform="translate(280,272.99999999999994)"><circle fill="#2ca02c" r="5"/><text text-anchor="end" dominant-baseline="text-before-edge" transform="translate(0,-6)"><tspan x="-8" y="0" dy="0" style="font-family: Arial, sans-serif; font-size: 10px; fill: black; font-weight: normal;">+ Self-reported health/disability</tspan></text></g><g id="+ Hospital-based comorbidities" transform="translate(280,351)"><circle fill="#ff7f0e" r="5"/><text text-anchor="end" dominant-baseline="text-before-edge" transform="translate(0,-6)"><tspan x="-8" y="0" dy="0" style="font-family: Arial, sans-serif; font-size: 10px; fill: black; font-weight: normal;">+ Hospital-based comorbidities</tspan></text></g><g id="Adjusted for age" transform="translate(280,428.99999999999994)"><circle fill="#9467bd" r="5"/><text text-anchor="end" dominant-baseline="text-before-edge" transform="translate(0,-6)"><tspan x="-8" y="0" dy="0" style="font-family: Arial, sans-serif; font-size: 10px; fill: black; font-weight: normal;">Adjusted for age</tspan></text></g><g id="+ Hospital-based comorbidities" transform="translate(280,507)"><circle fill="#ff7f0e" r="5"/><text text-anchor="end" dominant-baseline="text-before-edge" transform="translate(0,-6)"><tspan x="-8" y="0" dy="0" style="font-family: Arial, sans-serif; font-size: 10px; fill: black; font-weight: normal;">+ Hospital-based comorbidities</tspan></text></g><g id="+ Geography" transform="translate(280,585)"><circle fill="#1f77b4" r="5"/><text text-anchor="end" dominant-baseline="text-before-edge" transform="translate(0,-6)"><tspan x="-8" y="0" dy="0" style="font-family: Arial, sans-serif; font-size: 10px; fill: black; font-weight: normal;">+ Geography</tspan></text></g><g id="+ Socio-economics" transform="translate(280,663)"><circle fill="#d62728" r="5"/><text text-anchor="end" dominant-baseline="text-before-edge" transform="translate(0,-6)"><tspan x="-8" y="0" dy="0" style="font-family: Arial, sans-serif; font-size: 10px; fill: black; font-weight: normal;">+ Socio-economics</tspan></text></g><g id="+ Self-reported health/disability" transform="translate(280,741.0000000000001)"><circle fill="#2ca02c" r="5"/><text text-anchor="end" dominant-baseline="text-before-edge" transform="translate(0,-6)"><tspan x="-8" y="0" dy="0" style="font-family: Arial, sans-serif; font-size: 10px; fill: black; font-weight: normal;">+ Self-reported health/disability</tspan></text></g><g id="Black African" transform="translate(420,4.8750000000000036)"><circle fill="#9467bd" r="10"/><text text-anchor="start" dominant-baseline="text-before-edge" transform="translate(0,-6)"><tspan x="12" y="0" dy="0" style="font-family: Arial, sans-serif; font-size: 10px; fill: black; font-weight: bold;">Black African</tspan></text></g><g id="Bangladeshi" transform="translate(420,14.62500000000001)"><circle fill="#9467bd" r="10"/><text text-anchor="start" dominant-baseline="text-before-edge" transform="translate(0,-6)"><tspan x="12" y="0" dy="0" style="font-family: Arial, sans-serif; font-size: 10px; fill: black; font-weight: bold;">Bangladeshi</tspan></text></g><g id="Black Caribbean" transform="translate(420,24.375000000000018)"><circle fill="#9467bd" r="10"/><text text-anchor="start" dominant-baseline="text-before-edge" transform="translate(0,-6)"><tspan x="12" y="0" dy="0" style="font-family: Arial, sans-serif; font-size: 10px; fill: black; font-weight: bold;">Black Caribbean</tspan></text></g><g id="Pakistani" transform="translate(420,34.124999999999964)"><circle fill="#9467bd" r="10"/><text text-anchor="start" dominant-baseline="text-before-edge" transform="translate(0,-6)"><tspan x="12" y="0" dy="0" style="font-family: Arial, sans-serif; font-size: 10px; fill: black; font-weight: bold;">Pakistani</tspan></text></g><g id="Other ethnic group" transform="translate(420,43.87499999999997)"><circle fill="#9467bd" r="10"/><text text-anchor="start" dominant-baseline="text-before-edge" transform="translate(0,-6)"><tspan x="12" y="0" dy="0" style="font-family: Arial, sans-serif; font-size: 10px; fill: black; font-weight: bold;">Other ethnic group</tspan></text></g><g id="Indian" transform="translate(420,53.62499999999998)"><circle fill="#9467bd" r="10"/><text text-anchor="start" dominant-baseline="text-before-edge" transform="translate(0,-6)"><tspan x="12" y="0" dy="0" style="font-family: Arial, sans-serif; font-size: 10px; fill: black; font-weight: bold;">Indian</tspan></text></g><g id="Mixed/Multiple ethnic groups" transform="translate(420,63.374999999999986)"><circle fill="#9467bd" r="10"/><text text-anchor="start" dominant-baseline="text-before-edge" transform="translate(0,-6)"><tspan x="12" y="0" dy="0" style="font-family: Arial, sans-serif; font-size: 10px; fill: black; font-weight: bold;">Mixed/Multiple ethnic groups</tspan></text></g><g id="Chinese" transform="translate(420,73.125)"><circle fill="#9467bd" r="10"/><text text-anchor="start" dominant-baseline="text-before-edge" transform="translate(0,-6)"><tspan x="12" y="0" dy="0" style="font-family: Arial, sans-serif; font-size: 10px; fill: black; font-weight: bold;">Chinese</tspan></text></g><g id="Black African" transform="translate(420,82.875)"><circle fill="#1f77b4" r="10"/><text text-anchor="start" dominant-baseline="text-before-edge" transform="translate(0,-6)"><tspan x="12" y="0" dy="0" style="font-family: Arial, sans-serif; font-size: 10px; fill: black; font-weight: bold;">Black African</tspan></text></g><g id="Bangladeshi" transform="translate(420,92.62500000000001)"><circle fill="#1f77b4" r="10"/><text text-anchor="start" dominant-baseline="text-before-edge" transform="translate(0,-6)"><tspan x="12" y="0" dy="0" style="font-family: Arial, sans-serif; font-size: 10px; fill: black; font-weight: bold;">Bangladeshi</tspan></text></g><g id="Black Caribbean" transform="translate(420,102.37500000000001)"><circle fill="#1f77b4" r="10"/><text text-anchor="start" dominant-baseline="text-before-edge" transform="translate(0,-6)"><tspan x="12" y="0" dy="0" style="font-family: Arial, sans-serif; font-size: 10px; fill: black; font-weight: bold;">Black Caribbean</tspan></text></g><g id="Pakistani" transform="translate(420,112.12500000000003)"><circle fill="#1f77b4" r="10"/><text text-anchor="start" dominant-baseline="text-before-edge" transform="translate(0,-6)"><tspan x="12" y="0" dy="0" style="font-family: Arial, sans-serif; font-size: 10px; fill: black; font-weight: bold;">Pakistani</tspan></text></g><g id="Other ethnic group" transform="translate(420,121.87499999999997)"><circle fill="#1f77b4" r="10"/><text text-anchor="start" dominant-baseline="text-before-edge" transform="translate(0,-6)"><tspan x="12" y="0" dy="0" style="font-family: Arial, sans-serif; font-size: 10px; fill: black; font-weight: bold;">Other ethnic group</tspan></text></g><g id="Indian" transform="translate(420,131.62499999999997)"><circle fill="#1f77b4" r="10"/><text text-anchor="start" dominant-baseline="text-before-edge" transform="translate(0,-6)"><tspan x="12" y="0" dy="0" style="font-family: Arial, sans-serif; font-size: 10px; fill: black; font-weight: bold;">Indian</tspan></text></g><g id="Mixed/Multiple ethnic groups" transform="translate(420,141.37499999999997)"><circle fill="#1f77b4" r="10"/><text text-anchor="start" dominant-baseline="text-before-edge" transform="translate(0,-6)"><tspan x="12" y="0" dy="0" style="font-family: Arial, sans-serif; font-size: 10px; fill: black; font-weight: bold;">Mixed/Multiple ethnic groups</tspan></text></g><g id="Chinese" transform="translate(420,151.125)"><circle fill="#1f77b4" r="10"/><text text-anchor="start" dominant-baseline="text-before-edge" transform="translate(0,-6)"><tspan x="12" y="0" dy="0" style="font-family: Arial, sans-serif; font-size: 10px; fill: black; font-weight: bold;">Chinese</tspan></text></g><g id="Black African" transform="translate(420,160.875)"><circle fill="#d62728" r="10"/><text text-anchor="start" dominant-baseline="text-before-edge" transform="translate(0,-6)"><tspan x="12" y="0" dy="0" style="font-family: Arial, sans-serif; font-size: 10px; fill: black; font-weight: bold;">Black African</tspan></text></g><g id="Bangladeshi" transform="translate(420,170.625)"><circle fill="#d62728" r="10"/><text text-anchor="start" dominant-baseline="text-before-edge" transform="translate(0,-6)"><tspan x="12" y="0" dy="0" style="font-family: Arial, sans-serif; font-size: 10px; fill: black; font-weight: bold;">Bangladeshi</tspan></text></g><g id="Black Caribbean" transform="translate(420,180.37499999999997)"><circle fill="#d62728" r="10"/><text text-anchor="start" dominant-baseline="text-before-edge" transform="translate(0,-6)"><tspan x="12" y="0" dy="0" style="font-family: Arial, sans-serif; font-size: 10px; fill: black; font-weight: bold;">Black Caribbean</tspan></text></g><g id="Pakistani" transform="translate(420,190.125)"><circle fill="#d62728" r="10"/><text text-anchor="start" dominant-baseline="text-before-edge" transform="translate(0,-6)"><tspan x="12" y="0" dy="0" style="font-family: Arial, sans-serif; font-size: 10px; fill: black; font-weight: bold;">Pakistani</tspan></text></g><g id="Other ethnic group" transform="translate(420,199.875)"><circle fill="#d62728" r="10"/><text text-anchor="start" dominant-baseline="text-before-edge" transform="translate(0,-6)"><tspan x="12" y="0" dy="0" style="font-family: Arial, sans-serif; font-size: 10px; fill: black; font-weight: bold;">Other ethnic group</tspan></text></g><g id="Indian" transform="translate(420,209.62499999999997)"><circle fill="#d62728" r="10"/><text text-anchor="start" dominant-baseline="text-before-edge" transform="translate(0,-6)"><tspan x="12" y="0" dy="0" style="font-family: Arial, sans-serif; font-size: 10px; fill: black; font-weight: bold;">Indian</tspan></text></g><g id="Mixed/Multiple ethnic groups" transform="translate(420,219.37499999999997)"><circle fill="#d62728" r="10"/><text text-anchor="start" dominant-baseline="text-before-edge" transform="translate(0,-6)"><tspan x="12" y="0" dy="0" style="font-family: Arial, sans-serif; font-size: 10px; fill: black; font-weight: bold;">Mixed/Multiple ethnic groups</tspan></text></g><g id="Chinese" transform="translate(420,229.125)"><circle fill="#d62728" r="10"/><text text-anchor="start" dominant-baseline="text-before-edge" transform="translate(0,-6)"><tspan x="12" y="0" dy="0" style="font-family: Arial, sans-serif; font-size: 10px; fill: black; font-weight: bold;">Chinese</tspan></text></g><g id="Black African" transform="translate(420,238.875)"><circle fill="#2ca02c" r="10"/><text text-anchor="start" dominant-baseline="text-before-edge" transform="translate(0,-6)"><tspan x="12" y="0" dy="0" style="font-family: Arial, sans-serif; font-size: 10px; fill: black; font-weight: bold;">Black African</tspan></text></g><g id="Bangladeshi" transform="translate(420,248.625)"><circle fill="#2ca02c" r="10"/><text text-anchor="start" dominant-baseline="text-before-edge" transform="translate(0,-6)"><tspan x="12" y="0" dy="0" style="font-family: Arial, sans-serif; font-size: 10px; fill: black; font-weight: bold;">Bangladeshi</tspan></text></g><g id="Black Caribbean" transform="translate(420,258.375)"><circle fill="#2ca02c" r="10"/><text text-anchor="start" dominant-baseline="text-before-edge" transform="translate(0,-6)"><tspan x="12" y="0" dy="0" style="font-family: Arial, sans-serif; font-size: 10px; fill: black; font-weight: bold;">Black Caribbean</tspan></text></g><g id="Chinese" transform="translate(420,268.12499999999994)"><circle fill="#2ca02c" r="10"/><text text-anchor="start" dominant-baseline="text-before-edge" transform="translate(0,-6)"><tspan x="12" y="0" dy="0" style="font-family: Arial, sans-serif; font-size: 10px; fill: black; font-weight: bold;">Chinese</tspan></text></g><g id="Indian" transform="translate(420,277.87499999999994)"><circle fill="#2ca02c" r="10"/><text text-anchor="start" dominant-baseline="text-before-edge" transform="translate(0,-6)"><tspan x="12" y="0" dy="0" style="font-family: Arial, sans-serif; font-size: 10px; fill: black; font-weight: bold;">Indian</tspan></text></g><g id="Mixed/Multiple ethnic groups" transform="translate(420,287.625)"><circle fill="#2ca02c" r="10"/><text text-anchor="start" dominant-baseline="text-before-edge" transform="translate(0,-6)"><tspan x="12" y="0" dy="0" style="font-family: Arial, sans-serif; font-size: 10px; fill: black; font-weight: bold;">Mixed/Multiple ethnic groups</tspan></text></g><g id="Other ethnic group" transform="translate(420,297.375)"><circle fill="#2ca02c" r="10"/><text text-anchor="start" dominant-baseline="text-before-edge" transform="translate(0,-6)"><tspan x="12" y="0" dy="0" style="font-family: Arial, sans-serif; font-size: 10px; fill: black; font-weight: bold;">Other ethnic group</tspan></text></g><g id="Pakistani" transform="translate(420,307.125)"><circle fill="#2ca02c" r="10"/><text text-anchor="start" dominant-baseline="text-before-edge" transform="translate(0,-6)"><tspan x="12" y="0" dy="0" style="font-family: Arial, sans-serif; font-size: 10px; fill: black; font-weight: bold;">Pakistani</tspan></text></g><g id="Black African" transform="translate(420,316.875)"><circle fill="#ff7f0e" r="10"/><text text-anchor="start" dominant-baseline="text-before-edge" transform="translate(0,-6)"><tspan x="12" y="0" dy="0" style="font-family: Arial, sans-serif; font-size: 10px; fill: black; font-weight: bold;">Black African</tspan></text></g><g id="Black Caribbean" transform="translate(420,326.625)"><circle fill="#ff7f0e" r="10"/><text text-anchor="start" dominant-baseline="text-before-edge" transform="translate(0,-6)"><tspan x="12" y="0" dy="0" style="font-family: Arial, sans-serif; font-size: 10px; fill: black; font-weight: bold;">Black Caribbean</tspan></text></g><g id="Other ethnic group" transform="translate(420,336.375)"><circle fill="#ff7f0e" r="10"/><text text-anchor="start" dominant-baseline="text-before-edge" transform="translate(0,-6)"><tspan x="12" y="0" dy="0" style="font-family: Arial, sans-serif; font-size: 10px; fill: black; font-weight: bold;">Other ethnic group</tspan></text></g><g id="Bangladeshi" transform="translate(420,346.125)"><circle fill="#ff7f0e" r="10"/><text text-anchor="start" dominant-baseline="text-before-edge" transform="translate(0,-6)"><tspan x="12" y="0" dy="0" style="font-family: Arial, sans-serif; font-size: 10px; fill: black; font-weight: bold;">Bangladeshi</tspan></text></g><g id="Indian" transform="translate(420,355.87499999999994)"><circle fill="#ff7f0e" r="10"/><text text-anchor="start" dominant-baseline="text-before-edge" transform="translate(0,-6)"><tspan x="12" y="0" dy="0" style="font-family: Arial, sans-serif; font-size: 10px; fill: black; font-weight: bold;">Indian</tspan></text></g><g id="Pakistani" transform="translate(420,365.62499999999994)"><circle fill="#ff7f0e" r="10"/><text text-anchor="start" dominant-baseline="text-before-edge" transform="translate(0,-6)"><tspan x="12" y="0" dy="0" style="font-family: Arial, sans-serif; font-size: 10px; fill: black; font-weight: bold;">Pakistani</tspan></text></g><g id="Mixed/Multiple ethnic groups" transform="translate(420,375.375)"><circle fill="#ff7f0e" r="10"/><text text-anchor="start" dominant-baseline="text-before-edge" transform="translate(0,-6)"><tspan x="12" y="0" dy="0" style="font-family: Arial, sans-serif; font-size: 10px; fill: black; font-weight: bold;">Mixed/Multiple ethnic groups</tspan></text></g><g id="Chinese" transform="translate(420,385.125)"><circle fill="#ff7f0e" r="10"/><text text-anchor="start" dominant-baseline="text-before-edge" transform="translate(0,-6)"><tspan x="12" y="0" dy="0" style="font-family: Arial, sans-serif; font-size: 10px; fill: black; font-weight: bold;">Chinese</tspan></text></g><g id="Black African" transform="translate(420,394.875)"><circle fill="#9467bd" r="10"/><text text-anchor="start" dominant-baseline="text-before-edge" transform="translate(0,-6)"><tspan x="12" y="0" dy="0" style="font-family: Arial, sans-serif; font-size: 10px; fill: black; font-weight: bold;">Black African</tspan></text></g><g id="Pakistani" transform="translate(420,404.625)"><circle fill="#9467bd" r="10"/><text text-anchor="start" dominant-baseline="text-before-edge" transform="translate(0,-6)"><tspan x="12" y="0" dy="0" style="font-family: Arial, sans-serif; font-size: 10px; fill: black; font-weight: bold;">Pakistani</tspan></text></g><g id="Bangladeshi" transform="translate(420,414.375)"><circle fill="#9467bd" r="10"/><text text-anchor="start" dominant-baseline="text-before-edge" transform="translate(0,-6)"><tspan x="12" y="0" dy="0" style="font-family: Arial, sans-serif; font-size: 10px; fill: black; font-weight: bold;">Bangladeshi</tspan></text></g><g id="Black Caribbean" transform="translate(420,424.12499999999994)"><circle fill="#9467bd" r="10"/><text text-anchor="start" dominant-baseline="text-before-edge" transform="translate(0,-6)"><tspan x="12" y="0" dy="0" style="font-family: Arial, sans-serif; font-size: 10px; fill: black; font-weight: bold;">Black Caribbean</tspan></text></g><g id="Other ethnic group" transform="translate(420,433.87499999999994)"><circle fill="#9467bd" r="10"/><text text-anchor="start" dominant-baseline="text-before-edge" transform="translate(0,-6)"><tspan x="12" y="0" dy="0" style="font-family: Arial, sans-serif; font-size: 10px; fill: black; font-weight: bold;">Other ethnic group</tspan></text></g><g id="Indian" transform="translate(420,443.62499999999994)"><circle fill="#9467bd" r="10"/><text text-anchor="start" dominant-baseline="text-before-edge" transform="translate(0,-6)"><tspan x="12" y="0" dy="0" style="font-family: Arial, sans-serif; font-size: 10px; fill: black; font-weight: bold;">Indian</tspan></text></g><g id="Mixed/Multiple ethnic groups" transform="translate(420,453.375)"><circle fill="#9467bd" r="10"/><text text-anchor="start" dominant-baseline="text-before-edge" transform="translate(0,-6)"><tspan x="12" y="0" dy="0" style="font-family: Arial, sans-serif; font-size: 10px; fill: black; font-weight: bold;">Mixed/Multiple ethnic groups</tspan></text></g><g id="Chinese" transform="translate(420,463.125)"><circle fill="#9467bd" r="10"/><text text-anchor="start" dominant-baseline="text-before-edge" transform="translate(0,-6)"><tspan x="12" y="0" dy="0" style="font-family: Arial, sans-serif; font-size: 10px; fill: black; font-weight: bold;">Chinese</tspan></text></g><g id="Black African" transform="translate(420,472.875)"><circle fill="#ff7f0e" r="10"/><text text-anchor="start" dominant-baseline="text-before-edge" transform="translate(0,-6)"><tspan x="12" y="0" dy="0" style="font-family: Arial, sans-serif; font-size: 10px; fill: black; font-weight: bold;">Black African</tspan></text></g><g id="Other ethnic group" transform="translate(420,482.625)"><circle fill="#ff7f0e" r="10"/><text text-anchor="start" dominant-baseline="text-before-edge" transform="translate(0,-6)"><tspan x="12" y="0" dy="0" style="font-family: Arial, sans-serif; font-size: 10px; fill: black; font-weight: bold;">Other ethnic group</tspan></text></g><g id="Black Caribbean" transform="translate(420,492.375)"><circle fill="#ff7f0e" r="10"/><text text-anchor="start" dominant-baseline="text-before-edge" transform="translate(0,-6)"><tspan x="12" y="0" dy="0" style="font-family: Arial, sans-serif; font-size: 10px; fill: black; font-weight: bold;">Black Caribbean</tspan></text></g><g id="Pakistani" transform="translate(420,502.125)"><circle fill="#ff7f0e" r="10"/><text text-anchor="start" dominant-baseline="text-before-edge" transform="translate(0,-6)"><tspan x="12" y="0" dy="0" style="font-family: Arial, sans-serif; font-size: 10px; fill: black; font-weight: bold;">Pakistani</tspan></text></g><g id="Chinese" transform="translate(420,511.875)"><circle fill="#ff7f0e" r="10"/><text text-anchor="start" dominant-baseline="text-before-edge" transform="translate(0,-6)"><tspan x="12" y="0" dy="0" style="font-family: Arial, sans-serif; font-size: 10px; fill: black; font-weight: bold;">Chinese</tspan></text></g><g id="Indian" transform="translate(420,521.625)"><circle fill="#ff7f0e" r="10"/><text text-anchor="start" dominant-baseline="text-before-edge" transform="translate(0,-6)"><tspan x="12" y="0" dy="0" style="font-family: Arial, sans-serif; font-size: 10px; fill: black; font-weight: bold;">Indian</tspan></text></g><g id="Bangladeshi" transform="translate(420,531.375)"><circle fill="#ff7f0e" r="10"/><text text-anchor="start" dominant-baseline="text-before-edge" transform="translate(0,-6)"><tspan x="12" y="0" dy="0" style="font-family: Arial, sans-serif; font-size: 10px; fill: black; font-weight: bold;">Bangladeshi</tspan></text></g><g id="Mixed/Multiple ethnic groups" transform="translate(420,541.125)"><circle fill="#ff7f0e" r="10"/><text text-anchor="start" dominant-baseline="text-before-edge" transform="translate(0,-6)"><tspan x="12" y="0" dy="0" style="font-family: Arial, sans-serif; font-size: 10px; fill: black; font-weight: bold;">Mixed/Multiple ethnic groups</tspan></text></g><g id="Black African" transform="translate(420,550.875)"><circle fill="#1f77b4" r="10"/><text text-anchor="start" dominant-baseline="text-before-edge" transform="translate(0,-6)"><tspan x="12" y="0" dy="0" style="font-family: Arial, sans-serif; font-size: 10px; fill: black; font-weight: bold;">Black African</tspan></text></g><g id="Pakistani" transform="translate(420,560.625)"><circle fill="#1f77b4" r="10"/><text text-anchor="start" dominant-baseline="text-before-edge" transform="translate(0,-6)"><tspan x="12" y="0" dy="0" style="font-family: Arial, sans-serif; font-size: 10px; fill: black; font-weight: bold;">Pakistani</tspan></text></g><g id="Bangladeshi" transform="translate(420,570.3749999999999)"><circle fill="#1f77b4" r="10"/><text text-anchor="start" dominant-baseline="text-before-edge" transform="translate(0,-6)"><tspan x="12" y="0" dy="0" style="font-family: Arial, sans-serif; font-size: 10px; fill: black; font-weight: bold;">Bangladeshi</tspan></text></g><g id="Black Caribbean" transform="translate(420,580.125)"><circle fill="#1f77b4" r="10"/><text text-anchor="start" dominant-baseline="text-before-edge" transform="translate(0,-6)"><tspan x="12" y="0" dy="0" style="font-family: Arial, sans-serif; font-size: 10px; fill: black; font-weight: bold;">Black Caribbean</tspan></text></g><g id="Other ethnic group" transform="translate(420,589.875)"><circle fill="#1f77b4" r="10"/><text text-anchor="start" dominant-baseline="text-before-edge" transform="translate(0,-6)"><tspan x="12" y="0" dy="0" style="font-family: Arial, sans-serif; font-size: 10px; fill: black; font-weight: bold;">Other ethnic group</tspan></text></g><g id="Indian" transform="translate(420,599.625)"><circle fill="#1f77b4" r="10"/><text text-anchor="start" dominant-baseline="text-before-edge" transform="translate(0,-6)"><tspan x="12" y="0" dy="0" style="font-family: Arial, sans-serif; font-size: 10px; fill: black; font-weight: bold;">Indian</tspan></text></g><g id="Mixed/Multiple ethnic groups" transform="translate(420,609.375)"><circle fill="#1f77b4" r="10"/><text text-anchor="start" dominant-baseline="text-before-edge" transform="translate(0,-6)"><tspan x="12" y="0" dy="0" style="font-family: Arial, sans-serif; font-size: 10px; fill: black; font-weight: bold;">Mixed/Multiple ethnic groups</tspan></text></g><g id="Chinese" transform="translate(420,619.125)"><circle fill="#1f77b4" r="10"/><text text-anchor="start" dominant-baseline="text-before-edge" transform="translate(0,-6)"><tspan x="12" y="0" dy="0" style="font-family: Arial, sans-serif; font-size: 10px; fill: black; font-weight: bold;">Chinese</tspan></text></g><g id="Black African" transform="translate(420,628.875)"><circle fill="#d62728" r="10"/><text text-anchor="start" dominant-baseline="text-before-edge" transform="translate(0,-6)"><tspan x="12" y="0" dy="0" style="font-family: Arial, sans-serif; font-size: 10px; fill: black; font-weight: bold;">Black African</tspan></text></g><g id="Pakistani" transform="translate(420,638.625)"><circle fill="#d62728" r="10"/><text text-anchor="start" dominant-baseline="text-before-edge" transform="translate(0,-6)"><tspan x="12" y="0" dy="0" style="font-family: Arial, sans-serif; font-size: 10px; fill: black; font-weight: bold;">Pakistani</tspan></text></g><g id="Black Caribbean" transform="translate(420,648.375)"><circle fill="#d62728" r="10"/><text text-anchor="start" dominant-baseline="text-before-edge" transform="translate(0,-6)"><tspan x="12" y="0" dy="0" style="font-family: Arial, sans-serif; font-size: 10px; fill: black; font-weight: bold;">Black Caribbean</tspan></text></g><g id="Other ethnic group" transform="translate(420,658.1249999999999)"><circle fill="#d62728" r="10"/><text text-anchor="start" dominant-baseline="text-before-edge" transform="translate(0,-6)"><tspan x="12" y="0" dy="0" style="font-family: Arial, sans-serif; font-size: 10px; fill: black; font-weight: bold;">Other ethnic group</tspan></text></g><g id="Indian" transform="translate(420,667.8749999999999)"><circle fill="#d62728" r="10"/><text text-anchor="start" dominant-baseline="text-before-edge" transform="translate(0,-6)"><tspan x="12" y="0" dy="0" style="font-family: Arial, sans-serif; font-size: 10px; fill: black; font-weight: bold;">Indian</tspan></text></g><g id="Bangladeshi" transform="translate(420,677.6249999999999)"><circle fill="#d62728" r="10"/><text text-anchor="start" dominant-baseline="text-before-edge" transform="translate(0,-6)"><tspan x="12" y="0" dy="0" style="font-family: Arial, sans-serif; font-size: 10px; fill: black; font-weight: bold;">Bangladeshi</tspan></text></g><g id="Mixed/Multiple ethnic groups" transform="translate(420,687.3749999999999)"><circle fill="#d62728" r="10"/><text text-anchor="start" dominant-baseline="text-before-edge" transform="translate(0,-6)"><tspan x="12" y="0" dy="0" style="font-family: Arial, sans-serif; font-size: 10px; fill: black; font-weight: bold;">Mixed/Multiple ethnic groups</tspan></text></g><g id="Chinese" transform="translate(420,697.1249999999999)"><circle fill="#d62728" r="10"/><text text-anchor="start" dominant-baseline="text-before-edge" transform="translate(0,-6)"><tspan x="12" y="0" dy="0" style="font-family: Arial, sans-serif; font-size: 10px; fill: black; font-weight: bold;">Chinese</tspan></text></g><g id="Bangladeshi" transform="translate(420,706.8749999999999)"><circle fill="#2ca02c" r="10"/><text text-anchor="start" dominant-baseline="text-before-edge" transform="translate(0,-6)"><tspan x="12" y="0" dy="0" style="font-family: Arial, sans-serif; font-size: 10px; fill: black; font-weight: bold;">Bangladeshi</tspan></text></g><g id="Black African" transform="translate(420,716.6249999999999)"><circle fill="#2ca02c" r="10"/><text text-anchor="start" dominant-baseline="text-before-edge" transform="translate(0,-6)"><tspan x="12" y="0" dy="0" style="font-family: Arial, sans-serif; font-size: 10px; fill: black; font-weight: bold;">Black African</tspan></text></g><g id="Black Caribbean" transform="translate(420,726.3749999999999)"><circle fill="#2ca02c" r="10"/><text text-anchor="start" dominant-baseline="text-before-edge" transform="translate(0,-6)"><tspan x="12" y="0" dy="0" style="font-family: Arial, sans-serif; font-size: 10px; fill: black; font-weight: bold;">Black Caribbean</tspan></text></g><g id="Chinese" transform="translate(420,736.125)"><circle fill="#2ca02c" r="10"/><text text-anchor="start" dominant-baseline="text-before-edge" transform="translate(0,-6)"><tspan x="12" y="0" dy="0" style="font-family: Arial, sans-serif; font-size: 10px; fill: black; font-weight: bold;">Chinese</tspan></text></g><g id="Indian" transform="translate(420,745.875)"><circle fill="#2ca02c" r="10"/><text text-anchor="start" dominant-baseline="text-before-edge" transform="translate(0,-6)"><tspan x="12" y="0" dy="0" style="font-family: Arial, sans-serif; font-size: 10px; fill: black; font-weight: bold;">Indian</tspan></text></g><g id="Mixed/Multiple ethnic groups" transform="translate(420,755.625)"><circle fill="#2ca02c" r="10"/><text text-anchor="start" dominant-baseline="text-before-edge" transform="translate(0,-6)"><tspan x="12" y="0" dy="0" style="font-family: Arial, sans-serif; font-size: 10px; fill: black; font-weight: bold;">Mixed/Multiple ethnic groups</tspan></text></g><g id="Other ethnic group" transform="translate(420,765.375)"><circle fill="#2ca02c" r="10"/><text text-anchor="start" dominant-baseline="text-before-edge" transform="translate(0,-6)"><tspan x="12" y="0" dy="0" style="font-family: Arial, sans-serif; font-size: 10px; fill: black; font-weight: bold;">Other ethnic group</tspan></text></g><g id="Pakistani" transform="translate(420,775.125)"><circle fill="#2ca02c" r="10"/><text text-anchor="start" dominant-baseline="text-before-edge" transform="translate(0,-6)"><tspan x="12" y="0" dy="0" style="font-family: Arial, sans-serif; font-size: 10px; fill: black; font-weight: bold;">Pakistani</tspan></text></g></g></g></svg>